<svg width="49" height="25" viewBox="0 0 49 25" fill="none" xmlns="http://www.w3.org/2000/svg">
<g clip-path="url(#clip0_786_2776)">
<path d="M46.2301 0.418945H3.56231C2.49128 0.418945 1.62305 1.28074 1.62305 2.34382V21.5946C1.62305 22.6576 2.49128 23.5194 3.56231 23.5194H46.2301C47.3012 23.5194 48.1694 22.6576 48.1694 21.5946V2.34382C48.1694 1.28074 47.3012 0.418945 46.2301 0.418945Z" fill="#F5F6F7"/>
<g clip-path="url(#clip1_786_2776)">
<path d="M13.2612 9.53326H14.239L13.7501 8.28882L13.2612 9.53326Z" fill="#2FABF7"/>
<path d="M25.3948 8.46656C25.3059 8.42212 25.1726 8.42212 25.0393 8.42212H24.1504V9.13323H25.0393C25.1726 9.13323 25.3059 9.13323 25.3948 9.08879C25.4837 9.04434 25.5282 8.91101 25.5282 8.77767C25.5726 8.5999 25.4837 8.51101 25.3948 8.46656Z" fill="#228FE0"/>
<path d="M34.9058 7.1333V7.66663L34.6391 7.1333H32.5502V7.66663L32.2836 7.1333H29.4391C28.9502 7.1333 28.5502 7.22219 28.1947 7.39997V7.1333H26.1947V7.39997C25.9724 7.22219 25.7058 7.1333 25.3502 7.1333H18.1947L17.7058 8.24441L17.2169 7.1333H14.9502V7.66663L14.6836 7.1333H12.7724L11.8836 9.22219L10.8613 11.5333H11.8836H13.128L13.3947 10.8222H14.0169L14.2836 11.5333H16.8613V11L17.0836 11.5333H18.3724L18.5947 11V11.5333H24.7724V10.3777H24.8613C24.9502 10.3777 24.9502 10.3777 24.9502 10.5111V11.4889H28.1502V11.2222C28.4169 11.3555 28.8169 11.4889 29.3502 11.4889H30.6835L30.9502 10.7777H31.5724L31.8391 11.4889H34.4169V10.8222L34.8169 11.4889H36.9058V7.1333H34.9058ZM19.8835 10.8666H19.128V8.42219L18.0613 10.8666H17.3947L16.328 8.42219V10.8666H14.8169L14.5058 10.2H12.9947L12.728 10.9111H11.8836L13.2169 7.75552H14.328L15.5724 10.7333V7.75552H16.7724L17.7502 9.88886L18.6391 7.75552H19.8835V10.8666ZM22.9058 8.42219H21.1724V8.99997H22.8613V9.62219H21.1724V10.2444H22.9058V10.9111H20.4169V7.75552H22.9058V8.42219ZM26.2391 9.71108C26.328 9.88886 26.3724 10.0222 26.3724 10.2889V10.9111H25.6169V10.5111C25.6169 10.3333 25.6169 10.0666 25.4836 9.88886C25.3502 9.75552 25.2169 9.75552 24.9502 9.75552H24.1502V10.9111H23.3947V7.75552H25.0836C25.4836 7.75552 25.7502 7.75552 25.9724 7.88886C26.1947 8.02219 26.328 8.24441 26.328 8.59997C26.328 9.08886 26.0169 9.35552 25.7947 9.44441C26.0169 9.48886 26.1502 9.62219 26.2391 9.71108ZM27.5724 10.8666H26.8169V7.71108H27.5724V10.8666ZM36.328 10.8666H35.2613L33.8391 8.51108V10.8666H32.328L32.0613 10.2H30.5058L30.2391 10.9111H29.3947C29.0391 10.9111 28.5947 10.8222 28.328 10.5555C28.0613 10.2889 27.928 9.9333 27.928 9.35552C27.928 8.91108 28.0169 8.46663 28.328 8.11108C28.5502 7.84441 28.9502 7.75552 29.4391 7.75552H30.1502V8.42219H29.4391C29.1724 8.42219 29.0391 8.46663 28.8613 8.59997C28.728 8.7333 28.6391 8.99997 28.6391 9.31108C28.6391 9.66663 28.6835 9.88886 28.8613 10.0666C28.9947 10.2 29.1724 10.2444 29.3947 10.2444H29.7058L30.728 7.79997H31.8391L33.0836 10.7777V7.79997H34.1947L35.4836 9.97775V7.79997H36.2391V10.8666H36.328Z" fill="#0571C1"/>
<path d="M30.7725 9.53326H31.7947L31.3058 8.28882L30.7725 9.53326Z" fill="#228FE0"/>
<path d="M23.2171 15.9332V13.3999L22.0615 14.6443L23.2171 15.9332Z" fill="#228FE0"/>
<path d="M18.4614 13.7112V14.289H20.1059V14.9112H18.4614V15.5778H20.2836L21.1281 14.6445L20.3281 13.7112H18.4614Z" fill="#2FABF7"/>
<path d="M24.906 13.7112H23.9727V14.5112H24.9504C25.2171 14.5112 25.3949 14.3778 25.3949 14.1112C25.3504 13.8445 25.1727 13.7112 24.906 13.7112Z" fill="#228FE0"/>
<path d="M38.6391 14.4666V12.4666H38.1057H36.7724C36.3724 12.4666 36.0613 12.5554 35.8391 12.7332V12.4666H33.7946C33.4835 12.4666 33.0835 12.5554 32.9057 12.7332V12.4666H29.3057V12.7332C29.0391 12.511 28.5502 12.4666 28.328 12.4666H25.928V12.7332C25.7057 12.511 25.1724 12.4666 24.9057 12.4666H22.2391L21.6168 13.1332L21.0391 12.4666H17.0391V16.8221H20.9502L21.5724 16.1554L22.1502 16.8221H24.5502V15.7999H24.8613C25.1724 15.7999 25.5724 15.7999 25.8835 15.6666V16.8666H27.8835V15.711H27.9724C28.1057 15.711 28.1057 15.711 28.1057 15.8443V16.8666H34.1502C34.5502 16.8666 34.9502 16.7777 35.1724 16.5999V16.8666H37.0835C37.4835 16.8666 37.8835 16.8221 38.1502 16.6443C38.5946 16.3777 38.8613 15.8888 38.8613 15.311C38.8613 14.9999 38.7724 14.6888 38.6391 14.4666ZM24.8613 15.1777H23.9724V16.2443H22.5502L21.6613 15.2221L20.728 16.2443H17.7946V13.0888H20.7724L21.6613 14.111L22.5946 13.0888H24.9502C25.528 13.0888 26.1946 13.2666 26.1946 14.111C26.1502 14.9999 25.528 15.1777 24.8613 15.1777ZM29.3057 14.9999C29.3946 15.1332 29.4391 15.311 29.4391 15.5777V16.1999H28.6835V15.7999C28.6835 15.6221 28.6835 15.311 28.5502 15.1777C28.4613 15.0443 28.2835 15.0443 28.0168 15.0443H27.2168V16.1999H26.4613V13.0443H28.1502C28.5057 13.0443 28.8168 13.0443 29.0391 13.1777C29.2613 13.311 29.4391 13.5332 29.4391 13.8888C29.4391 14.3777 29.128 14.6443 28.9057 14.7332C29.128 14.8221 29.2613 14.911 29.3057 14.9999ZM32.3724 13.711H30.6391V14.2888H32.328V14.911H30.6391V15.5332H32.3724V16.1999H29.8835V13.0443H32.3724V13.711ZM34.2391 16.1999H32.8168V15.5332H34.2391C34.3724 15.5332 34.4613 15.5332 34.5502 15.4443C34.5946 15.3999 34.6391 15.311 34.6391 15.2221C34.6391 15.1332 34.5946 15.0443 34.5502 14.9999C34.5057 14.9554 34.4168 14.911 34.2835 14.911C33.5724 14.8666 32.728 14.911 32.728 13.9332C32.728 13.4888 32.9946 12.9999 33.7946 12.9999H35.2613V13.7554H33.8835C33.7502 13.7554 33.6613 13.7554 33.5724 13.7999C33.4835 13.8443 33.4835 13.9332 33.4835 14.0221C33.4835 14.1554 33.5724 14.1999 33.6613 14.2443C33.7502 14.2888 33.8391 14.2888 33.928 14.2888H34.328C34.728 14.2888 34.9946 14.3777 35.1724 14.5554C35.3057 14.6888 35.3946 14.911 35.3946 15.2221C35.3946 15.8888 34.9946 16.1999 34.2391 16.1999ZM38.0613 15.8888C37.8835 16.0666 37.5724 16.1999 37.128 16.1999H35.7057V15.5332H37.128C37.2613 15.5332 37.3502 15.5332 37.4391 15.4443C37.4835 15.3999 37.528 15.311 37.528 15.2221C37.528 15.1332 37.4835 15.0443 37.4391 14.9999C37.3946 14.9554 37.3057 14.911 37.1724 14.911C36.4613 14.8666 35.6168 14.911 35.6168 13.9332C35.6168 13.4888 35.8835 12.9999 36.6835 12.9999H38.1502V13.7554H36.8168C36.6835 13.7554 36.5946 13.7554 36.5057 13.7999C36.4168 13.8443 36.4168 13.9332 36.4168 14.0221C36.4168 14.1554 36.4613 14.1999 36.5946 14.2443C36.6835 14.2888 36.7724 14.2888 36.8613 14.2888H37.2613C37.6613 14.2888 37.928 14.3777 38.1057 14.5554C38.1502 14.5554 38.1502 14.5999 38.1502 14.5999C38.2835 14.7777 38.328 14.9999 38.328 15.2221C38.328 15.4888 38.2391 15.711 38.0613 15.8888Z" fill="#0571C1"/>
<path d="M28.5057 13.8001C28.4168 13.7556 28.2835 13.7556 28.1501 13.7556H27.2612V14.4667H28.1501C28.2835 14.4667 28.4168 14.4667 28.5057 14.4223C28.5946 14.3778 28.639 14.2445 28.639 14.1112C28.6835 13.9334 28.5946 13.8445 28.5057 13.8001Z" fill="#228FE0"/>
<path d="M25.3948 8.46656C25.3059 8.42212 25.1726 8.42212 25.0393 8.42212H24.1504V9.13323H25.0393C25.1726 9.13323 25.3059 9.13323 25.3948 9.08879C25.4837 9.04434 25.5282 8.91101 25.5282 8.77767C25.5726 8.5999 25.4837 8.51101 25.3948 8.46656Z" fill="#228FE0"/>
<path d="M30.7725 9.53326H31.7947L31.3058 8.28882L30.7725 9.53326Z" fill="#228FE0"/>
<path d="M23.2171 15.9332V13.3999L22.0615 14.6443L23.2171 15.9332Z" fill="#228FE0"/>
<path d="M24.906 13.7112H23.9727V14.5112H24.9504C25.2171 14.5112 25.3949 14.3778 25.3949 14.1112C25.3504 13.8445 25.1727 13.7112 24.906 13.7112Z" fill="#228FE0"/>
<path d="M28.5057 13.8001C28.4168 13.7556 28.2835 13.7556 28.1501 13.7556H27.2612V14.4667H28.1501C28.2835 14.4667 28.4168 14.4667 28.5057 14.4223C28.5946 14.3778 28.639 14.2445 28.639 14.1112C28.6835 13.9334 28.5946 13.8445 28.5057 13.8001Z" fill="#228FE0"/>
<path d="M24.5946 16.111L23.9724 15.4443V16.1999H22.5057L21.6168 15.1777L20.6391 16.1999H17.7057V13.0888H20.6835L21.6168 14.111L22.0613 13.5777L20.9502 12.4666H17.0391V16.8221H20.9502L21.6168 16.1554L22.1946 16.8221H24.5946V16.111Z" fill="#2FABF7"/>
<path d="M19.9724 11.4889L19.3947 10.8666H19.128V10.6L18.4613 9.9333L18.0169 10.8666H17.3947L16.328 8.42219V10.8666H14.8169L14.5058 10.2H12.9947L12.6836 10.8666H11.8836L13.2169 7.75552H14.328L15.5724 10.7333V7.75552H16.2391L15.6169 7.1333H14.9502V7.66663L14.728 7.1333H12.7724L11.8836 9.22219L10.8613 11.4889H11.8836H13.1724L13.4391 10.8222H14.0613L14.3724 11.4889H16.8613V10.9555L17.0835 11.4889H18.3724L18.5947 10.9555V11.4889H19.9724Z" fill="#2FABF7"/>
<path d="M17.9279 9.44451L17.2168 8.7334L17.7501 9.88895L17.9279 9.44451Z" fill="#2FABF7"/>
<path d="M38.1503 16.5999C38.5503 16.3333 38.817 15.8888 38.8614 15.3999L38.2392 14.7777C38.2836 14.911 38.3281 15.0444 38.3281 15.2221C38.3281 15.4888 38.2392 15.711 38.0614 15.8888C37.8836 16.0666 37.5725 16.1999 37.1281 16.1999H35.7058V15.5333H37.1281C37.2614 15.5333 37.3503 15.5333 37.4392 15.4444C37.4836 15.3999 37.5281 15.311 37.5281 15.2221C37.5281 15.1333 37.4836 15.0444 37.4392 14.9999C37.3947 14.9555 37.3058 14.911 37.1725 14.911C36.4614 14.8666 35.617 14.911 35.617 13.9333C35.617 13.4888 35.8836 13.0888 36.5503 12.9999L36.0614 12.511C35.9725 12.5555 35.9281 12.5999 35.8836 12.5999V12.3333H33.8392C33.5281 12.3333 33.1281 12.4221 32.9503 12.5999V12.3333H29.3058V12.5999C29.0392 12.3777 28.5503 12.3333 28.3281 12.3333H25.9281V12.5999C25.7058 12.3777 25.1725 12.3333 24.9058 12.3333H22.2392L21.617 12.9999L21.0392 12.3333H20.5503L21.8836 13.6666L22.5503 12.9555H24.9058C25.4836 12.9555 26.1503 13.1333 26.1503 13.9777C26.1503 14.8666 25.5281 15.0444 24.8614 15.0444H23.9725V15.711L24.6392 16.3777V15.711H24.8614C25.1725 15.711 25.5725 15.711 25.8836 15.5777V16.7777H27.8836V15.6221H27.9725C28.1058 15.6221 28.1058 15.6221 28.1058 15.7555V16.7777H34.1503C34.5503 16.7777 34.9503 16.6888 35.1725 16.511V16.7777H37.0836C37.4392 16.8221 37.8392 16.7777 38.1503 16.5999ZM29.3058 14.9999C29.3947 15.1333 29.4392 15.311 29.4392 15.5777V16.1999H28.6836V15.7999C28.6836 15.6221 28.6836 15.311 28.5503 15.1777C28.4614 15.0444 28.2836 15.0444 28.017 15.0444H27.217V16.1999H26.4614V13.0444H28.1503C28.5058 13.0444 28.817 13.0444 29.0392 13.1777C29.2614 13.311 29.4392 13.5333 29.4392 13.8888C29.4392 14.3777 29.1281 14.6444 28.9058 14.7333C29.1281 14.8221 29.2614 14.911 29.3058 14.9999ZM32.3725 13.711H30.6392V14.2888H32.3281V14.911H30.6392V15.5333H32.3725V16.1999H29.8836V13.0444H32.3725V13.711ZM34.2392 16.1999H32.817V15.5333H34.2392C34.3725 15.5333 34.4614 15.5333 34.5503 15.4444C34.5947 15.3999 34.6392 15.311 34.6392 15.2221C34.6392 15.1333 34.5947 15.0444 34.5503 14.9999C34.5058 14.9555 34.417 14.911 34.2836 14.911C33.5725 14.8666 32.7281 14.911 32.7281 13.9333C32.7281 13.4888 32.9947 12.9999 33.7947 12.9999H35.2614V13.7555H33.8836C33.7503 13.7555 33.6614 13.7555 33.5725 13.7999C33.4836 13.8444 33.4836 13.9333 33.4836 14.0221C33.4836 14.1555 33.5725 14.1999 33.6614 14.2444C33.7503 14.2888 33.8392 14.2888 33.9281 14.2888H34.3281C34.7281 14.2888 34.9947 14.3777 35.1725 14.5555C35.3058 14.6888 35.3947 14.911 35.3947 15.2221C35.3947 15.8888 34.9947 16.1999 34.2392 16.1999Z" fill="#228FE0"/>
<path d="M36.3726 14.0223C36.3726 14.1556 36.417 14.2001 36.5503 14.2445C36.6392 14.2889 36.7281 14.2889 36.817 14.2889H37.217C37.4837 14.2889 37.6614 14.3334 37.8392 14.4223L37.1726 13.7556H36.7726C36.6392 13.7556 36.5503 13.7556 36.4614 13.8001C36.417 13.8445 36.3726 13.9334 36.3726 14.0223Z" fill="#228FE0"/>
<path d="M34.8169 11.3555L34.9058 11.4888H34.9502L34.8169 11.3555Z" fill="#228FE0"/>
<path d="M32.3726 8.91113L33.1281 10.7334V9.66669L32.3726 8.91113Z" fill="#228FE0"/>
<path d="M24.7723 10.3777H24.8612C24.9501 10.3777 24.9501 10.3777 24.9501 10.5111V11.4888H28.1501V11.2222C28.4168 11.3555 28.8168 11.4888 29.3501 11.4888H30.6835L30.9501 10.7777H31.5723L31.839 11.4888H34.4168V11.0444L33.7946 10.4222V10.9111H32.2835L32.0612 10.2H30.5057L30.239 10.9111H29.3946C29.039 10.9111 28.5946 10.8222 28.3279 10.5555C28.0612 10.2888 27.9279 9.93329 27.9279 9.35551C27.9279 8.91107 28.0168 8.46662 28.3279 8.11107C28.5501 7.8444 28.9501 7.75551 29.439 7.75551H30.1501V8.42218H29.439C29.1723 8.42218 29.039 8.46662 28.8612 8.59996C28.7279 8.73329 28.639 8.99996 28.639 9.31107C28.639 9.66662 28.6835 9.88885 28.8612 10.0666C28.9946 10.2 29.1723 10.2444 29.3946 10.2444H29.7057L30.7279 7.79996H31.1723L30.5501 7.17773H29.3946C28.9057 7.17773 28.5057 7.26662 28.1501 7.4444V7.17773H26.1946V7.4444C25.9723 7.26662 25.7057 7.17773 25.3501 7.17773H18.1946L17.7057 8.28885L17.2168 7.17773H15.2612L15.8835 7.79996H16.7723L17.5279 9.4444L17.7946 9.71107L18.5946 7.75551H19.839V10.9111H19.0835V8.46662L18.3279 10.2444L19.6168 11.5333H24.7279L24.7723 10.3777ZM26.8168 7.75551H27.5723V10.9111H26.8168V7.75551ZM22.9057 8.42218H21.1723V8.99996H22.8612V9.62218H21.1723V10.2444H22.9057V10.9111H20.4168V7.75551H22.9057V8.42218ZM24.1501 10.8666H23.3946V7.71107H25.0835C25.4835 7.71107 25.7501 7.71107 25.9723 7.8444C26.1946 7.97773 26.3279 8.19996 26.3279 8.55551C26.3279 9.0444 26.0168 9.31107 25.7946 9.39996C25.9723 9.4444 26.1057 9.57773 26.1501 9.66662C26.239 9.8444 26.2835 9.97773 26.2835 10.2444V10.8666H25.5279V10.4666C25.5279 10.2888 25.5279 10.0222 25.3946 9.8444C25.3501 9.75551 25.2168 9.75551 24.9501 9.75551H24.1501V10.8666Z" fill="#228FE0"/>
</g>
</g>
<defs>
<clipPath id="clip0_786_2776">
<rect width="47.6951" height="24.1742" fill="white" transform="translate(0.666016)"/>
</clipPath>
<clipPath id="clip1_786_2776">
<rect width="28" height="28" fill="white" transform="translate(10.8613 -2)"/>
</clipPath>
</defs>
</svg>
