<svg width="47" height="24" viewBox="0 0 47 24" fill="none" xmlns="http://www.w3.org/2000/svg">
<path d="M44.9679 0.536865H2.3001C1.22908 0.536865 0.36084 1.39866 0.36084 2.46174V21.7125C0.36084 22.7756 1.22908 23.6374 2.3001 23.6374H44.9679C46.039 23.6374 46.9072 22.7756 46.9072 21.7125V2.46174C46.9072 1.39866 46.039 0.536865 44.9679 0.536865Z" fill="#F5F6F7"/>
<path fill-rule="evenodd" clip-rule="evenodd" d="M15.225 7.53687C15.2871 8.09092 15.0602 8.64691 14.7217 9.04599C14.3833 9.44506 13.8295 9.75599 13.2865 9.71434C13.2128 9.17191 13.4862 8.6072 13.8004 8.25365C14.1496 7.85361 14.7382 7.55624 15.225 7.53687ZM16.9803 10.7614C16.8911 10.8137 15.9281 11.3891 15.9388 12.5563C15.9523 13.954 17.1665 14.4403 17.2353 14.4674L17.2382 14.4684L17.2344 14.48C17.0776 14.9541 16.8529 15.4031 16.5672 15.8128C16.1647 16.3872 15.7468 16.9616 15.0873 16.9732C14.7712 16.979 14.5588 16.889 14.3387 16.796C14.1088 16.6991 13.8693 16.5984 13.4911 16.5984C13.0935 16.5984 12.8433 16.702 12.6018 16.8018C12.3923 16.889 12.1906 16.9742 11.9055 16.9848C11.2693 17.0081 10.7854 16.362 10.3791 15.7886C9.54802 14.6166 8.91282 12.4749 9.76524 11.0278C9.96924 10.6756 10.2605 10.3817 10.611 10.1744C10.9616 9.96716 11.3596 9.85341 11.7668 9.84413C12.1208 9.83735 12.4641 9.97005 12.7647 10.0863C12.9936 10.1754 13.1982 10.2548 13.3631 10.2548C13.5114 10.2548 13.7102 10.1773 13.943 10.0882C14.3076 9.94778 14.7547 9.77536 15.2153 9.82089C15.5305 9.83445 16.4159 9.94681 16.9842 10.7585C16.9825 10.7595 16.9809 10.7604 16.9793 10.7614H16.9803Z" fill="#192A36"/>
<path d="M20.8145 15.9669H21.8075V13.1298H23.8149C25.3083 13.1298 26.3683 12.0778 26.3683 10.5687V10.558C26.3683 9.04893 25.3093 8.01831 23.8149 8.01831H20.8145V15.9669ZM23.5608 8.89976C24.6974 8.89976 25.353 9.52259 25.353 10.5687V10.5803C25.353 11.6264 24.6974 12.2493 23.5608 12.2493H21.8075V8.89976H23.5608ZM28.7016 16.0715C29.5016 16.0715 30.1242 15.7247 30.4995 15.0912H30.5868V15.9669H31.5468V11.9015C31.5468 10.6685 30.7361 9.92457 29.2873 9.92457C28.0188 9.92457 27.115 10.5522 26.9599 11.4841L26.954 11.516H27.9141L27.9199 11.4996C28.0741 11.0375 28.5425 10.7731 29.2543 10.7731C30.1417 10.7731 30.5887 11.1693 30.5887 11.9015V12.442L28.8848 12.5466C27.5 12.629 26.7174 13.2402 26.7174 14.2979V14.3086C26.7174 15.3886 27.5708 16.0715 28.7016 16.0715ZM27.6978 14.2873V14.2756C27.6978 13.6867 28.0954 13.3671 28.9993 13.3119L30.5877 13.2131V13.7526C30.5877 14.6011 29.8759 15.2394 28.9004 15.2394C28.2108 15.2394 27.6978 14.8868 27.6978 14.2873ZM33.0044 18.0494C34.0576 18.0494 34.5483 17.6629 35.039 16.3301L37.3606 10.0292H36.352L34.7248 14.9149H34.6365L33.0044 10.0292H31.9784L34.1788 15.9727L34.0682 16.3253C33.8529 17.0081 33.5223 17.2551 32.9763 17.2551C32.8444 17.2551 32.695 17.2503 32.5787 17.228V18.0165C32.7195 18.0382 32.8619 18.0492 33.0044 18.0494Z" fill="#192A36"/>
</svg>
