<svg width="47" height="24" viewBox="0 0 47 24" fill="none" xmlns="http://www.w3.org/2000/svg">
<path d="M45.0607 0.536865H2.39288C1.32185 0.536865 0.453613 1.39866 0.453613 2.46174V21.7125C0.453613 22.7756 1.32185 23.6374 2.39288 23.6374H45.0607C46.1317 23.6374 47 22.7756 47 21.7125V2.46174C47 1.39866 46.1317 0.536865 45.0607 0.536865Z" fill="#F5F6F7"/>
<path d="M15.573 8.47803H5.33428C4.84868 8.47803 4.45361 8.87309 4.45361 9.35869V15.7152C4.45361 16.2008 4.84868 16.5958 5.33428 16.5958H15.5729C16.0586 16.5958 16.4536 16.2008 16.4536 15.7152V9.35869C16.4536 8.87309 16.0586 8.47803 15.573 8.47803ZM8.14493 13.7636H9.33451C9.47724 13.7636 9.5929 13.8793 9.5929 14.022C9.5929 14.1647 9.47722 14.2804 9.33451 14.2804H8.14493C8.0022 14.2804 7.88653 14.1647 7.88653 14.022C7.88653 13.8793 8.00222 13.7636 8.14493 13.7636ZM5.57112 11.1718C5.57112 11.029 5.6868 10.9134 5.82951 10.9134H7.37752C7.52025 10.9134 7.63592 11.029 7.63592 11.1718V12.291C7.63592 12.4337 7.52023 12.5494 7.37752 12.5494H5.82951C5.68678 12.5494 5.57112 12.4337 5.57112 12.291V11.1718ZM5.82951 13.7636H7.01909C7.16182 13.7636 7.27749 13.8793 7.27749 14.022C7.27749 14.1647 7.1618 14.2804 7.01909 14.2804H5.82951C5.68678 14.2804 5.57112 14.1647 5.57112 14.022C5.57112 13.8793 5.68683 13.7636 5.82951 13.7636ZM10.0763 15.4295H5.82951C5.68678 15.4295 5.57112 15.3138 5.57112 15.1711C5.57112 15.0284 5.6868 14.9127 5.82951 14.9127H10.0763C10.219 14.9127 10.3347 15.0284 10.3347 15.1711C10.3347 15.3138 10.219 15.4295 10.0763 15.4295ZM11.6499 14.2804H10.4604C10.3176 14.2804 10.202 14.1647 10.202 14.022C10.202 13.8793 10.3176 13.7636 10.4604 13.7636H11.6499C11.7927 13.7636 11.9083 13.8793 11.9083 14.022C11.9083 14.1647 11.7927 14.2804 11.6499 14.2804ZM13.9653 14.2804H12.7758C12.633 14.2804 12.5174 14.1647 12.5174 14.022C12.5174 13.8793 12.6331 13.7636 12.7758 13.7636H13.9653C14.1081 13.7636 14.2237 13.8793 14.2237 14.022C14.2237 14.1647 14.108 14.2804 13.9653 14.2804ZM15.0777 10.5057H12.2721C12.1293 10.5057 12.0137 10.39 12.0137 10.2473C12.0137 10.1046 12.1293 9.98888 12.2721 9.98888H15.0777C15.2205 9.98888 15.3361 10.1046 15.3361 10.2473C15.3361 10.39 15.2204 10.5057 15.0777 10.5057Z" fill="#222222"/>
<path d="M18.8983 12.5469C18.8983 11.8669 19.0516 11.2569 19.3583 10.7169C19.6649 10.1702 20.0816 9.74353 20.6083 9.43686C21.1416 9.1302 21.7316 8.97686 22.3783 8.97686C23.1383 8.97686 23.8016 9.1602 24.3683 9.52687C24.9349 9.89353 25.3483 10.4135 25.6083 11.0869H24.5183C24.3249 10.6669 24.0449 10.3435 23.6783 10.1169C23.3183 9.8902 22.8849 9.77686 22.3783 9.77686C21.8916 9.77686 21.4549 9.8902 21.0683 10.1169C20.6816 10.3435 20.3783 10.6669 20.1583 11.0869C19.9383 11.5002 19.8283 11.9869 19.8283 12.5469C19.8283 13.1002 19.9383 13.5869 20.1583 14.0069C20.3783 14.4202 20.6816 14.7402 21.0683 14.9669C21.4549 15.1935 21.8916 15.3069 22.3783 15.3069C22.8849 15.3069 23.3183 15.1969 23.6783 14.9769C24.0449 14.7502 24.3249 14.4269 24.5183 14.0069H25.6083C25.3483 14.6735 24.9349 15.1902 24.3683 15.5569C23.8016 15.9169 23.1383 16.0969 22.3783 16.0969C21.7316 16.0969 21.1416 15.9469 20.6083 15.6469C20.0816 15.3402 19.6649 14.9169 19.3583 14.3769C19.0516 13.8369 18.8983 13.2269 18.8983 12.5469ZM26.6229 13.2769C26.6229 12.7169 26.7362 12.2269 26.9629 11.8069C27.1895 11.3802 27.4995 11.0502 27.8929 10.8169C28.2929 10.5835 28.7362 10.4669 29.2229 10.4669C29.7029 10.4669 30.1195 10.5702 30.4729 10.7769C30.8262 10.9835 31.0895 11.2435 31.2629 11.5569V10.5569H32.1829V16.0369H31.2629V15.0169C31.0829 15.3369 30.8129 15.6035 30.4529 15.8169C30.0995 16.0235 29.6862 16.1269 29.2129 16.1269C28.7262 16.1269 28.2862 16.0069 27.8929 15.7669C27.4995 15.5269 27.1895 15.1902 26.9629 14.7569C26.7362 14.3235 26.6229 13.8302 26.6229 13.2769ZM31.2629 13.2869C31.2629 12.8735 31.1795 12.5135 31.0129 12.2069C30.8462 11.9002 30.6195 11.6669 30.3329 11.5069C30.0529 11.3402 29.7429 11.2569 29.4029 11.2569C29.0629 11.2569 28.7529 11.3369 28.4729 11.4969C28.1929 11.6569 27.9695 11.8902 27.8029 12.1969C27.6362 12.5035 27.5529 12.8635 27.5529 13.2769C27.5529 13.6969 27.6362 14.0635 27.8029 14.3769C27.9695 14.6835 28.1929 14.9202 28.4729 15.0869C28.7529 15.2469 29.0629 15.3269 29.4029 15.3269C29.7429 15.3269 30.0529 15.2469 30.3329 15.0869C30.6195 14.9202 30.8462 14.6835 31.0129 14.3769C31.1795 14.0635 31.2629 13.7002 31.2629 13.2869ZM34.6307 11.4469C34.7907 11.1335 35.0174 10.8902 35.3107 10.7169C35.6107 10.5435 35.974 10.4569 36.4007 10.4569V11.3969H36.1607C35.1407 11.3969 34.6307 11.9502 34.6307 13.0569V16.0369H33.7207V10.5569H34.6307V11.4469ZM37.1112 13.2769C37.1112 12.7169 37.2245 12.2269 37.4512 11.8069C37.6778 11.3802 37.9878 11.0502 38.3812 10.8169C38.7812 10.5835 39.2278 10.4669 39.7212 10.4669C40.1478 10.4669 40.5445 10.5669 40.9112 10.7669C41.2778 10.9602 41.5578 11.2169 41.7512 11.5369V8.63687H42.6712V16.0369H41.7512V15.0069C41.5712 15.3335 41.3045 15.6035 40.9512 15.8169C40.5978 16.0235 40.1845 16.1269 39.7112 16.1269C39.2245 16.1269 38.7812 16.0069 38.3812 15.7669C37.9878 15.5269 37.6778 15.1902 37.4512 14.7569C37.2245 14.3235 37.1112 13.8302 37.1112 13.2769ZM41.7512 13.2869C41.7512 12.8735 41.6678 12.5135 41.5012 12.2069C41.3345 11.9002 41.1078 11.6669 40.8212 11.5069C40.5412 11.3402 40.2312 11.2569 39.8912 11.2569C39.5512 11.2569 39.2412 11.3369 38.9612 11.4969C38.6812 11.6569 38.4578 11.8902 38.2912 12.1969C38.1245 12.5035 38.0412 12.8635 38.0412 13.2769C38.0412 13.6969 38.1245 14.0635 38.2912 14.3769C38.4578 14.6835 38.6812 14.9202 38.9612 15.0869C39.2412 15.2469 39.5512 15.3269 39.8912 15.3269C40.2312 15.3269 40.5412 15.2469 40.8212 15.0869C41.1078 14.9202 41.3345 14.6835 41.5012 14.3769C41.6678 14.0635 41.7512 13.7002 41.7512 13.2869Z" fill="#222222"/>
</svg>
