<svg width="48" height="24" viewBox="0 0 48 24" fill="none" xmlns="http://www.w3.org/2000/svg">
<path d="M45.5143 0.536865H2.84649C1.77546 0.536865 0.907227 1.39866 0.907227 2.46174V21.7125C0.907227 22.7756 1.77546 23.6374 2.84649 23.6374H45.5143C46.5853 23.6374 47.4536 22.7756 47.4536 21.7125V2.46174C47.4536 1.39866 46.5853 0.536865 45.5143 0.536865Z" fill="#F5F6F7"/>
<mask id="mask0_786_2812" style="mask-type:luminance" maskUnits="userSpaceOnUse" x="8" y="6" width="32" height="12">
<path d="M8.90723 6.53687H39.4072V17.8894H8.90723V6.53687Z" fill="white"/>
</mask>
<g mask="url(#mask0_786_2812)">
<path d="M18.7818 11.3651C18.7818 11.0433 18.7529 10.7216 18.695 10.4048H13.9443V12.2234H16.6643C16.6078 12.5155 16.4899 12.7925 16.3182 13.0362C16.1431 13.2847 15.9192 13.4956 15.6599 13.656V14.8401H17.2827C18.2332 14.0183 18.7818 12.8026 18.7818 11.3651Z" fill="#4285F4"/>
<path d="M13.9441 15.9796C15.3026 15.9796 16.4477 15.5608 17.2825 14.8391L15.6587 13.66C15.2069 13.9481 14.6254 14.1114 13.9441 14.1114C12.6306 14.1114 11.5154 13.2818 11.1165 12.1631H9.4458V13.3798C9.87466 14.1715 10.5175 14.8287 11.302 15.2777C12.0969 15.737 13.0116 15.9806 13.9451 15.9806L13.9441 15.9796Z" fill="#34A853"/>
<path d="M11.1165 12.1619C10.9056 11.5775 10.9056 10.9386 11.1165 10.3542V9.13745H9.44483C9.09283 9.7901 8.90819 10.5188 8.90723 11.2591C8.90723 11.9956 9.09175 12.7213 9.44483 13.3797L11.1165 12.1619Z" fill="#FBBC04"/>
<path d="M23.3331 12.0838V15.4102H22.2061V7.19308H25.1923C25.5494 7.18516 25.9035 7.24456 26.2356 7.36634C26.5678 7.48811 26.87 7.67126 27.1263 7.90391C27.3816 8.12568 27.5851 8.39496 27.7238 8.69494C27.8618 8.99217 27.9333 9.31558 27.9333 9.64288C27.9333 9.97018 27.8618 10.2936 27.7238 10.5908C27.5841 10.8908 27.3816 11.1601 27.1263 11.3828C26.6037 11.8491 25.9593 12.0828 25.1923 12.0818H23.3331V12.0838ZM23.3331 8.20488V11.0739H25.2212C25.5205 11.0789 25.8157 11.0017 26.069 10.8512C26.3186 10.704 26.5186 10.4866 26.6436 10.2265C26.7652 9.96909 26.8031 9.68495 26.7533 9.40775C26.7044 9.13054 26.5698 8.87314 26.3643 8.66821C26.3543 8.65831 26.3453 8.64841 26.3344 8.6395C26.19 8.49581 26.0171 8.38353 25.8267 8.30982C25.6337 8.23445 25.4275 8.19843 25.2202 8.20389L23.3331 8.20488ZM30.5305 9.60476C31.3643 9.60476 32.0206 9.81266 32.5014 10.2295C32.9821 10.6463 33.2225 11.2185 33.2235 11.9452V15.4102H32.1463V14.6311H32.0964C31.6306 15.2746 31.0103 15.5953 30.2363 15.5944C29.575 15.5944 29.0224 15.4112 28.5776 15.0439C28.3666 14.8779 28.1961 14.6667 28.0788 14.4261C27.9635 14.1896 27.9057 13.9295 27.9103 13.6668C27.9103 13.0847 28.1457 12.6223 28.6145 12.2788C29.0832 11.9362 29.7096 11.764 30.4926 11.764C31.1609 11.764 31.7124 11.8788 32.1443 12.1065V11.865C32.1463 11.6868 32.1044 11.5105 32.0246 11.3492C31.9427 11.1859 31.8248 11.0431 31.6795 10.9314C31.3757 10.6772 30.9896 10.5404 30.5923 10.5463C29.964 10.5463 29.4653 10.7948 29.0992 11.2927L28.1088 10.7057C28.6534 9.97107 29.4603 9.60476 30.5305 9.60476ZM29.0733 13.6896C29.0733 13.8232 29.1062 13.9569 29.171 14.0757C29.2371 14.1967 29.3315 14.3003 29.4463 14.3776C29.6957 14.5608 30.0049 14.6588 30.321 14.6529C30.7909 14.6537 31.2437 14.4775 31.5878 14.1598C31.9608 13.8311 32.1473 13.444 32.1463 13.0015C31.7962 12.7392 31.3065 12.6075 30.6781 12.6075C30.2203 12.6075 29.8393 12.7104 29.5331 12.9174C29.2259 13.1282 29.0733 13.3827 29.0733 13.6896ZM39.4075 9.7889L35.6472 17.8892H34.4852L35.8796 15.0548L33.406 9.7889H34.6309L36.4162 13.8292H36.4402L38.1797 9.78989L39.4075 9.7889Z" fill="#222222"/>
<path d="M13.9442 8.4058C14.655 8.39202 15.3449 8.64479 15.8762 9.11366L17.3144 7.76724C16.3831 6.95736 15.1823 6.51892 13.9442 6.53665C13.0106 6.53665 12.096 6.78019 11.301 7.23956C10.5166 7.68864 9.87381 8.34585 9.44482 9.13742L11.1175 10.3551C11.5165 9.23642 12.6306 8.4058 13.9442 8.4058Z" fill="#EA4335"/>
</g>
</svg>
