<svg width="48" height="25" viewBox="0 0 48 25" fill="none" xmlns="http://www.w3.org/2000/svg">
<g clip-path="url(#clip0_786_2771)">
<path d="M44.809 0.418945H2.72569C1.66933 0.418945 0.812988 1.28074 0.812988 2.34382V21.5946C0.812988 22.6576 1.66933 23.5194 2.72569 23.5194H44.809C45.8654 23.5194 46.7217 22.6576 46.7217 21.5946V2.34382C46.7217 1.28074 45.8654 0.418945 44.809 0.418945Z" fill="#F5F6F7"/>
<path fill-rule="evenodd" clip-rule="evenodd" d="M29.3216 20.6318C34.1769 20.6318 38.1144 16.7538 38.1144 11.9693C38.1144 7.18483 34.1769 3.30688 29.3216 3.30688C24.4653 3.30688 20.5278 7.18483 20.5278 11.9693C20.5278 16.7538 24.4653 20.6318 29.3216 20.6318Z" fill="#F79E1B"/>
<path fill-rule="evenodd" clip-rule="evenodd" d="M18.2137 20.6318C23.07 20.6318 27.0065 16.7538 27.0065 11.9693C27.0065 7.18483 23.07 3.30688 18.2137 3.30688C13.3574 3.30688 9.4209 7.18483 9.4209 11.9693C9.4209 16.7538 13.3574 20.6318 18.2137 20.6318Z" fill="#EB001B"/>
<path fill-rule="evenodd" clip-rule="evenodd" d="M23.7677 5.25293C21.7909 6.84138 20.5288 9.25981 20.5288 11.9693C20.5288 14.6789 21.7909 17.0973 23.7677 18.6857C25.7454 17.0973 27.0076 14.6789 27.0076 11.9693C27.0076 9.25981 25.7454 6.84138 23.7677 5.25293Z" fill="#FF5F00"/>
</g>
<defs>
<clipPath id="clip0_786_2771">
<rect width="47.0417" height="24.1742" fill="white" transform="translate(0.624023)"/>
</clipPath>
</defs>
</svg>
