<svg width="48" height="25" viewBox="0 0 48 25" fill="none" xmlns="http://www.w3.org/2000/svg">
<g clip-path="url(#clip0_786_2749)">
<path d="M44.9042 0.418945H2.8209C1.76455 0.418945 0.908203 1.28074 0.908203 2.34382V21.5946C0.908203 22.6576 1.76455 23.5194 2.8209 23.5194H44.9042C45.9606 23.5194 46.8169 22.6576 46.8169 21.5946V2.34382C46.8169 1.28074 45.9606 0.418945 44.9042 0.418945Z" fill="#F5F6F7"/>
<path fill-rule="evenodd" clip-rule="evenodd" d="M20.5585 20.0445L20.8717 18.1377L20.1741 18.1216H16.8472L19.1592 4.04817C19.167 4.00457 19.1901 3.96523 19.2243 3.93737C19.2594 3.90886 19.3033 3.89354 19.3484 3.89406H24.9604C26.823 3.89406 28.1092 4.26674 28.7808 5.00003C29.095 5.34451 29.2952 5.70511 29.3923 6.10096C29.4944 6.51696 29.4964 7.01354 29.3973 7.6189L29.3893 7.66322V8.05202L29.7046 8.22326C29.9428 8.33866 30.1584 8.49629 30.3411 8.68861C30.6114 8.98374 30.7845 9.35743 30.8586 9.80163C30.9347 10.2579 30.9086 10.8008 30.7845 11.4163C30.6414 12.1234 30.4092 12.7398 30.0959 13.2434C29.8158 13.6989 29.4438 14.0901 29.004 14.3917C28.5876 14.6748 28.0931 14.8903 27.5326 15.0283C26.9305 15.1703 26.3135 15.2386 25.695 15.2318H25.2586C24.9454 15.2318 24.6431 15.3395 24.4049 15.5339C24.1696 15.725 24.0113 15.9957 23.9595 16.2954L23.9264 16.4677L23.373 19.8289L23.3479 19.9528C23.3419 19.9921 23.3299 20.0112 23.3139 20.0243C23.2973 20.0373 23.2769 20.0444 23.2559 20.0445H20.5585Z" fill="#28356A"/>
<path fill-rule="evenodd" clip-rule="evenodd" d="M30.0007 7.7085C29.9836 7.81393 29.9646 7.91904 29.9436 8.02377C29.203 11.67 26.6707 12.9301 23.4379 12.9301H21.7904C21.6035 12.9265 21.4214 12.9899 21.2765 13.1089C21.1317 13.2279 21.0336 13.3948 20.9997 13.5798L19.9188 20.1653C19.8787 20.411 20.0759 20.6316 20.3341 20.6316H23.2547C23.601 20.6316 23.8953 20.3909 23.9493 20.0635L23.9774 19.9215L24.5278 16.5734L24.5629 16.3891C24.5929 16.227 24.6791 16.0808 24.8061 15.9766C24.9331 15.8724 25.0927 15.8169 25.2565 15.82H25.6939C28.5234 15.82 30.7384 14.718 31.3859 11.528C31.6562 10.1954 31.516 9.0824 30.8004 8.29976C30.5713 8.05596 30.3004 7.85567 30.0007 7.7085Z" fill="#019DDE"/>
<path fill-rule="evenodd" clip-rule="evenodd" d="M29.2283 7.41231C28.9914 7.34617 28.7507 7.29471 28.5076 7.2582C28.0642 7.18971 27.5768 7.15748 27.0563 7.15748H22.6574C22.5528 7.15708 22.4494 7.17941 22.3542 7.22295C22.2529 7.26808 22.1643 7.33766 22.0962 7.42551C22.0281 7.51337 21.9827 7.61678 21.9638 7.72658L21.028 13.4136L21.002 13.5798C21.0358 13.3947 21.134 13.2278 21.2788 13.1088C21.4236 12.9898 21.6057 12.9265 21.7927 12.9301H23.4381C26.672 12.9301 29.2042 11.669 29.9439 8.02372C29.9669 7.91594 29.9849 7.81119 30.0019 7.70845C29.7545 7.58331 29.4959 7.48408 29.2283 7.41231Z" fill="#00164C"/>
<path fill-rule="evenodd" clip-rule="evenodd" d="M21.9637 7.72664C21.9824 7.61679 22.0278 7.51329 22.0959 7.42541C22.164 7.33753 22.2527 7.26799 22.3541 7.22301C22.4493 7.17945 22.5527 7.15711 22.6573 7.15754H27.0562C27.5767 7.15754 28.0631 7.19078 28.5075 7.25927C28.8074 7.30434 29.1035 7.37202 29.3933 7.46173C29.6115 7.53224 29.8137 7.61282 30.0018 7.70851C30.222 6.3608 29.9998 5.44319 29.2412 4.6122C28.4034 3.6976 26.8931 3.30679 24.9594 3.30679H19.3474C19.1601 3.30316 18.9776 3.36658 18.8324 3.48575C18.6872 3.60492 18.5888 3.77209 18.5547 3.95748L16.2176 18.1749C16.1706 18.457 16.3978 18.7108 16.693 18.7108H20.1571L21.9637 7.72664Z" fill="#012F86"/>
</g>
<defs>
<clipPath id="clip0_786_2749">
<rect width="47.0417" height="24.1742" fill="white" transform="translate(0.152344)"/>
</clipPath>
</defs>
</svg>
