<?xml version="1.0" encoding="UTF-8"?>
<svg xmlns="http://www.w3.org/2000/svg" version="1.1" xmlns:xlink="http://www.w3.org/1999/xlink" viewBox="0 0 48 25">
  <!-- Generator: Adobe Illustrator 29.3.1, SVG Export Plug-In . SVG Version: 2.1.0 Build 151)  -->
  <defs>
    <style>
      .st0, .st1 {
        fill: #635bff;
      }

      .st1 {
        fill-rule: evenodd;
      }

      .st2 {
        fill: none;
      }

      .st3 {
        clip-path: url(#clippath-1);
      }

      .st4 {
        clip-path: url(#clippath);
      }

      .st5 {
        fill: #f5f6f7;
      }
    </style>
    <clipPath id="clippath">
      <rect class="st2" x=".2" width="47" height="24.2"/>
    </clipPath>
    <clipPath id="clippath-1">
      <rect class="st2" x="4.2" y="-7.3" width="39.6" height="39.6"/>
    </clipPath>
  </defs>
  <g id="Layer_1">
    <g class="st4">
      <path class="st5" d="M44.9.4H2.8C1.8.4.9,1.3.9,2.3v19.3c0,1.1.9,1.9,1.9,1.9h42.1c1.1,0,1.9-.9,1.9-1.9V2.3c0-1.1-.9-1.9-1.9-1.9Z"/>
    </g>
  </g>
  <g id="Layer_2">
    <g class="st3">
      <g>
        <path class="st1" d="M43.8,12.8c0-2.8-1.4-5-4-5s-4.2,2.2-4.2,5,1.9,5,4.6,5,2.3-.3,3-.7v-2.2c-.7.4-1.6.6-2.7.6s-2-.4-2.1-1.7h5.4c0-.1,0-.7,0-1ZM38.4,11.7c0-1.2.8-1.8,1.5-1.8s1.4.5,1.4,1.8h-2.8Z"/>
        <path class="st1" d="M31.4,7.7c-1.1,0-1.8.5-2.2.9v-.7h-2.6v12.8l2.8-.6v-3.1c.4.3,1,.7,2,.7,2,0,3.8-1.6,3.8-5.1,0-3.2-1.8-4.9-3.8-4.9ZM30.7,15.3c-.6,0-1-.2-1.3-.5v-4.1c.3-.3.7-.5,1.3-.5,1,0,1.7,1.1,1.7,2.6s-.7,2.6-1.7,2.6Z"/>
        <path class="st1" d="M22.9,7.1l2.8-.6v-2.2l-2.8.6v2.2Z"/>
        <path class="st0" d="M25.6,7.9h-2.8v9.6h2.8V7.9Z"/>
        <path class="st1" d="M19.9,8.7l-.2-.8h-2.4v9.6h2.8v-6.5c.6-.8,1.8-.7,2.1-.6v-2.5c-.4-.1-1.6-.4-2.3.8Z"/>
        <path class="st1" d="M14.4,5.5l-2.7.6v8.8c0,1.6,1.2,2.8,2.8,2.8s1.6-.2,1.9-.4v-2.2c-.4.1-2.1.6-2.1-1v-3.9h2.1v-2.3h-2.1v-2.4Z"/>
        <path class="st1" d="M7,10.7c0-.4.4-.6.9-.6.8,0,1.9.3,2.7.7v-2.6c-.9-.4-1.8-.5-2.7-.5-2.2,0-3.7,1.2-3.7,3.1,0,3,4.2,2.6,4.2,3.9s-.4.7-1.1.7c-.9,0-2.1-.4-3-.9v2.6c1,.4,2.1.6,3,.6,2.3,0,3.9-1.1,3.9-3.1,0-3.3-4.2-2.7-4.2-3.9Z"/>
      </g>
    </g>
  </g>
</svg>