<svg width="47" height="25" viewBox="0 0 47 25" fill="none" xmlns="http://www.w3.org/2000/svg">
<g clip-path="url(#clip0_786_2767)">
<path d="M44.593 0.418945H2.78915C1.73982 0.418945 0.88916 1.28074 0.88916 2.34382V21.5946C0.88916 22.6576 1.73982 23.5194 2.78915 23.5194H44.593C45.6423 23.5194 46.493 22.6576 46.493 21.5946V2.34382C46.493 1.28074 45.6423 0.418945 44.593 0.418945Z" fill="#F5F6F7"/>
<path fill-rule="evenodd" clip-rule="evenodd" d="M31.4511 7.58776C30.6555 7.29686 29.8154 7.15091 28.9695 7.15666C26.2334 7.15666 24.3055 8.54768 24.2896 10.5411C24.2747 12.0157 25.6657 12.8376 26.7156 13.3281C27.7933 13.8308 28.1562 14.1511 28.1503 14.6003C28.1433 15.2873 27.2903 15.6015 26.4939 15.6015C25.3863 15.6015 24.7977 15.4464 23.888 15.0636L23.53 14.9005L23.1423 17.197C23.7895 17.4831 24.9846 17.7309 26.2264 17.744C29.1375 17.744 31.0286 16.3691 31.0485 14.2397C31.0584 13.0733 30.3217 12.1849 28.7249 11.4536C27.7556 10.9782 27.164 10.6609 27.1699 10.1815C27.1699 9.75539 27.671 9.2991 28.7548 9.2991C29.4652 9.28254 30.1712 9.41634 30.8278 9.69193L31.0763 9.80978L31.4511 7.58776ZM18.6404 17.5919L20.3713 7.33595H23.1403L21.4083 17.5919H18.6404ZM36.4114 7.34502H38.552L40.793 17.5949H38.2229C38.2229 17.5949 37.9694 16.4164 37.8869 16.0578C37.6721 16.0578 36.7783 16.0578 35.9381 16.0558H35.9312L34.3404 16.0538C34.232 16.3318 33.7568 17.5949 33.7568 17.5949H30.8486L34.9608 8.19615C35.2531 7.52733 35.7473 7.34502 36.4114 7.34502ZM35.1378 13.9557C35.3665 13.3654 36.2414 11.088 36.2414 11.088C36.2334 11.1021 36.2871 10.9611 36.3607 10.7687C36.4382 10.5652 36.5367 10.3064 36.6093 10.1099L36.7952 10.9943L37.4375 13.9557H35.1378ZM13.6065 14.3374L16.3168 7.343H19.2498L14.8911 17.5798L11.9611 17.5838L9.48242 8.61215C11.2402 9.50055 12.8131 11.2753 13.3172 12.9152L13.6065 14.3354V14.3374Z" fill="#1A1F71"/>
<path fill-rule="evenodd" clip-rule="evenodd" d="M11.0913 7.33594H6.62612L6.59033 7.54948C10.0642 8.3996 12.3629 10.4504 13.3174 12.9162L12.346 8.20218C12.179 7.5525 11.6928 7.3591 11.0913 7.33594Z" fill="#F9A51A"/>
</g>
<defs>
<clipPath id="clip0_786_2767">
<rect width="45.735" height="24.1742" fill="white" transform="translate(0.88916)"/>
</clipPath>
</defs>
</svg>
