<svg width="29" height="20" viewBox="0 0 29 20" fill="none" xmlns="http://www.w3.org/2000/svg">
<path d="M20.3581 17.5159H5.62793V6.12483C5.62793 5.04333 6.50451 4.16675 7.58601 4.16675H18.3995C19.481 4.16675 20.3578 5.04333 20.3578 6.12483V17.5159H20.3581Z" fill="#FC8C29"/>
<path d="M20.3576 17.976H5.62741C5.37297 17.976 5.16699 17.7703 5.16699 17.5159V6.1248C5.16699 4.79096 6.25192 3.7063 7.58576 3.7063H18.3995C19.733 3.7063 20.818 4.79096 20.818 6.1248V17.5159C20.8177 17.7703 20.612 17.976 20.3576 17.976ZM6.08756 17.0555H19.8971V6.1248C19.8971 5.29905 19.2249 4.62687 18.3992 4.62687H7.58576C6.75975 4.62687 6.08756 5.29905 6.08756 6.1248V17.0555Z" fill="#4C241D"/>
<path d="M28.6431 17.5158H20.3574V8.76978H24.6139C25.6496 8.76978 26.6144 9.2884 27.1754 10.1463L28.6431 12.392V17.5158Z" fill="white"/>
<path d="M28.6435 17.976H20.3579C20.1034 17.976 19.8975 17.7702 19.8975 17.5158V8.76974C19.8975 8.5153 20.1034 8.30933 20.3579 8.30933H24.6144C25.8115 8.30933 26.9127 8.9017 27.561 9.89444L29.0286 12.1402C29.0776 12.215 29.1037 12.3027 29.1037 12.392V17.5158C29.1037 17.7702 28.898 17.976 28.6435 17.976ZM20.818 17.0554H28.1831V12.5292L26.7905 10.3978C26.3127 9.6666 25.4988 9.23016 24.6144 9.23016H20.818V17.0554Z" fill="#4C241D"/>
<path d="M20.3582 17.5159H4.24707V17.0615C4.24707 16.0414 5.07413 15.2144 6.09426 15.2144H20.3582V17.5159Z" fill="#9DC1E4"/>
<path d="M20.3577 17.976H4.24655C3.99237 17.976 3.78613 17.7703 3.78613 17.5159V17.0613C3.78613 15.7891 4.82128 14.7539 6.09348 14.7539H20.3577C20.6121 14.7539 20.8178 14.9599 20.8178 15.2143V17.5159C20.8178 17.7703 20.6121 17.976 20.3577 17.976ZM4.7067 17.0555H19.8973V15.6745H6.09348C5.33095 15.6745 4.70986 16.2935 4.7067 17.0555Z" fill="#4C241D"/>
<path d="M26.6993 17.4007C26.6993 18.552 25.7661 19.4852 24.6148 19.4852C23.4637 19.4852 22.5303 18.552 22.5303 17.4007C22.5303 16.2494 23.4637 15.3162 24.6148 15.3162C25.7661 15.3162 26.6993 16.2494 26.6993 17.4007Z" fill="#6B4F5B"/>
<path d="M24.615 19.9456C23.2121 19.9456 22.0703 18.8037 22.0703 17.4006C22.0703 15.9978 23.2121 14.856 24.615 14.856C26.0178 14.856 27.1596 15.9978 27.1596 17.4006C27.1596 18.8035 26.0178 19.9456 24.615 19.9456ZM24.615 15.7765C23.7197 15.7765 22.9909 16.5051 22.9909 17.4006C22.9909 18.2959 23.7197 19.0247 24.615 19.0247C25.5105 19.0247 26.2391 18.2959 26.2391 17.4006C26.2391 16.5051 25.5105 15.7765 24.615 15.7765Z" fill="#4C241D"/>
<path d="M12.0717 9.23016H0.563931C0.309491 9.23016 0.103516 9.02418 0.103516 8.76974C0.103516 8.5153 0.309491 8.30933 0.563931 8.30933H12.0717C12.3259 8.30933 12.5321 8.5153 12.5321 8.76974C12.5321 9.02418 12.3259 9.23016 12.0717 9.23016Z" fill="#4C241D"/>
<path d="M25.3684 17.4008C25.3684 17.8167 25.0313 18.1538 24.6154 18.1538C24.1995 18.1538 23.8623 17.8167 23.8623 17.4008C23.8623 16.9849 24.1995 16.6477 24.6154 16.6477C25.0313 16.6477 25.3684 16.9849 25.3684 17.4008Z" fill="#4C241D"/>
<path d="M12.8904 17.4007C12.8904 18.552 11.9572 19.4852 10.8059 19.4852C9.65489 19.4852 8.72168 18.552 8.72168 17.4007C8.72168 16.2494 9.65489 15.3162 10.8059 15.3162C11.9572 15.3162 12.8904 16.2494 12.8904 17.4007Z" fill="#6B4F5B"/>
<path d="M10.8054 19.9456C9.4023 19.9456 8.26074 18.8037 8.26074 17.4006C8.26074 15.9978 9.4023 14.856 10.8054 14.856C12.2088 14.856 13.3503 15.9978 13.3503 17.4006C13.3503 18.8037 12.2088 19.9456 10.8054 19.9456ZM10.8054 15.7765C9.91013 15.7765 9.18131 16.5051 9.18131 17.4006C9.18131 18.2959 9.91013 19.0247 10.8054 19.0247C11.701 19.0247 12.4295 18.2959 12.4295 17.4006C12.4295 16.5051 11.701 15.7765 10.8054 15.7765Z" fill="#4C241D"/>
<path d="M11.5586 17.4008C11.5586 17.8167 11.2214 18.1538 10.8055 18.1538C10.3899 18.1538 10.0527 17.8167 10.0527 17.4008C10.0527 16.9849 10.3899 16.6477 10.8055 16.6477C11.2214 16.6477 11.5586 16.9849 11.5586 17.4008Z" fill="#4C241D"/>
<path d="M10.9149 4.55548C10.9149 6.79329 9.10089 8.6073 6.86308 8.6073C4.62553 8.6073 2.81152 6.79329 2.81152 4.55548C2.81152 2.31767 4.62553 0.503662 6.86308 0.503662C9.10089 0.503662 10.9149 2.31767 10.9149 4.55548Z" fill="white"/>
<path d="M6.86353 9.0674C4.3755 9.0674 2.35156 7.0432 2.35156 4.55543C2.35156 2.06765 4.3755 0.043457 6.86353 0.043457C9.35131 0.043457 11.3758 2.06765 11.3758 4.55543C11.3758 7.0432 9.35131 9.0674 6.86353 9.0674ZM6.86353 0.964025C4.88332 0.964025 3.27213 2.57522 3.27213 4.55543C3.27213 6.53564 4.88332 8.14683 6.86353 8.14683C8.84401 8.14683 10.4549 6.53564 10.4549 4.55543C10.4549 2.57522 8.84401 0.964025 6.86353 0.964025Z" fill="#4C241D"/>
<path d="M5.98045 6.42549C5.88668 6.42549 5.7916 6.39651 5.70968 6.33672C5.50423 6.18711 5.45919 5.89948 5.6088 5.69403L6.5486 4.40524V2.54171C6.5486 2.28727 6.75457 2.0813 7.00875 2.0813C7.26319 2.0813 7.46916 2.28727 7.46916 2.54171V4.55538C7.46916 4.6531 7.43808 4.74792 7.38066 4.82641L6.35289 6.2361C6.26281 6.3599 6.12268 6.42549 5.98045 6.42549Z" fill="#4C241D"/>
<path d="M23.5801 10.1506V13.3728H26.6784C26.9389 13.3728 27.1019 13.0914 26.9729 12.8655L25.898 10.9845C25.6032 10.4688 25.0548 10.1506 24.4606 10.1506H23.5801Z" fill="#C1DBDC"/>
<path d="M26.6776 13.8331H23.5796C23.3251 13.8331 23.1191 13.6272 23.1191 13.3727V10.1506C23.1191 9.89616 23.3251 9.69019 23.5796 9.69019H24.4601C25.2176 9.69019 25.9214 10.099 26.297 10.7561L27.3717 12.6373C27.5147 12.8865 27.5142 13.1849 27.3696 13.4344C27.2247 13.6841 26.9663 13.8331 26.6776 13.8331ZM24.04 12.9126H26.4687L25.4976 11.2126C25.2853 10.8415 24.8881 10.6108 24.4601 10.6108H24.04V12.9126Z" fill="#4C241D"/>
<path d="M9.30974 11.0712H3.32539C3.07121 11.0712 2.86523 10.8652 2.86523 10.6108C2.86523 10.3563 3.07121 10.1506 3.32539 10.1506H9.30974C9.56392 10.1506 9.76989 10.3563 9.76989 10.6108C9.76989 10.8652 9.56392 11.0712 9.30974 11.0712Z" fill="#4C241D"/>
<path d="M7.00817 12.9128H0.563931C0.309491 12.9128 0.103516 12.7068 0.103516 12.4524C0.103516 12.1979 0.309491 11.9919 0.563931 11.9919H7.00817C7.26261 11.9919 7.46859 12.1979 7.46859 12.4524C7.46859 12.7068 7.26261 12.9128 7.00817 12.9128Z" fill="#4C241D"/>
</svg>
