<svg width="43" height="44" viewBox="0 0 43 44" fill="none" xmlns="http://www.w3.org/2000/svg">
<g clip-path="url(#clip0_1043_2739)">
<path d="M42.3568 16.7014V39.322C42.3568 40.4824 41.8627 41.5269 41.0744 42.2585C40.3592 42.9215 39.4022 43.327 38.3508 43.327H4.64366C3.59222 43.327 2.63526 42.9215 1.92107 42.2591C1.13273 41.5269 0.638672 40.4824 0.638672 39.322V16.7014H42.3568Z" fill="#FEC970"/>
<path d="M21.6681 43.327H4.64366C2.43186 43.327 0.638672 41.5338 0.638672 39.322V16.5669L5.0872 20.4059L5.36474 20.6365V32.0528C5.36474 35.9367 6.9319 39.6179 10.5052 41.1417C13.8022 42.5478 19.6673 43.327 21.6681 43.327Z" fill="#FBA028"/>
<path d="M42.3564 16.7014L26.3211 3.34995C23.5263 1.02267 19.4685 1.02267 16.6737 3.34995L0.638672 16.7014L5.36474 20.6366L16.6737 30.0529C19.4688 32.3805 23.5266 32.3805 26.3207 30.0529L37.6307 20.6366L42.3568 16.7014" fill="#FBA028"/>
<path d="M37.6312 8.36889V20.6365L26.3212 30.0529C23.5271 32.3805 19.4693 32.3805 16.6742 30.0529L5.36523 20.6365V8.36889C5.36523 5.81132 7.43925 3.7373 9.99781 3.7373H32.9996C35.5578 3.7373 37.6312 5.81132 37.6312 8.36889Z" fill="#BFDADD"/>
<path d="M37.6312 8.36889V17.8269L26.3212 27.2433C23.5271 29.5709 19.4693 29.5709 16.6742 27.2433L5.36523 17.8269V8.36889C5.36523 5.81132 7.43925 3.7373 9.99781 3.7373H32.9996C35.5578 3.7373 37.6312 5.81132 37.6312 8.36889Z" fill="#E4F5F7"/>
<path d="M38.4682 40.7274C38.6513 40.7274 38.833 40.6493 38.9593 40.4974C39.185 40.2264 39.1483 39.8239 38.8773 39.5982L28.6956 31.1211C28.4246 30.8953 28.0221 30.9321 27.7963 31.2031C27.5706 31.474 27.6074 31.8769 27.8784 32.1026L38.0601 40.5798C38.1795 40.6792 38.3242 40.7274 38.4682 40.7274Z" fill="black"/>
<path d="M14.3003 31.1211L4.11859 39.5982C3.84761 39.8239 3.81087 40.2264 4.03658 40.4974C4.16255 40.6493 4.3443 40.7274 4.52769 40.7274C4.67171 40.7274 4.81638 40.6792 4.9358 40.5798L15.1176 32.1023C15.3885 31.8769 15.4253 31.474 15.1996 31.2031C14.9742 30.9321 14.5713 30.8953 14.3003 31.1211Z" fill="black"/>
<path d="M42.9952 16.7016C42.9952 16.512 42.9109 16.3322 42.7653 16.2108L38.2692 12.4673V8.36913C38.2692 5.46315 35.9052 3.09913 32.9992 3.09913H27.0169L26.7296 2.85964C23.6983 0.334546 19.2973 0.334546 16.265 2.85964L15.9776 3.09913H14.6867C14.334 3.09913 14.0483 3.38487 14.0483 3.73754C14.0483 4.09021 14.334 4.37628 14.6867 4.37628H32.9992C35.2008 4.37628 36.992 6.1675 36.992 8.36913V12.7632V12.7635V20.3375L25.912 29.5626C23.3545 31.6934 19.6411 31.6931 17.0822 29.5623L6.00355 20.3375V12.7639C6.00355 12.7635 6.00355 12.7632 6.00355 12.7632V8.36913C6.00355 6.1675 7.7951 4.37628 9.99738 4.37628H12.1324C12.4851 4.37628 12.7712 4.09021 12.7712 3.73754C12.7712 3.38487 12.4851 3.09913 12.1324 3.09913H9.99738C7.09108 3.09913 4.7264 5.46315 4.7264 8.36913V12.4673L0.2303 16.2111C0.0859525 16.3312 0.00196838 16.509 0.000656125 16.6967C0.000656125 16.6986 0 16.7 0 16.7019V39.3222C0 41.8827 2.0832 43.9656 4.64373 43.9656H33.2469C33.5995 43.9656 33.8853 43.6798 33.8853 43.3272C33.8853 42.9745 33.5995 42.6888 33.2469 42.6888H4.64373C2.78722 42.6888 1.27715 41.1784 1.27715 39.3222V18.064L4.95834 21.1295C4.95867 21.1295 4.95867 21.1295 4.95867 21.1298L16.265 30.5439C17.7817 31.8066 19.6391 32.4378 21.4976 32.4375C23.3554 32.4375 25.2139 31.8063 26.7292 30.5439L38.0343 21.1314C38.0362 21.1298 38.0379 21.1285 38.0395 21.1268L41.7178 18.0644V39.3218C41.7178 41.178 40.2077 42.6884 38.3512 42.6884H35.8012C35.4485 42.6884 35.1627 42.9742 35.1627 43.3268C35.1627 43.6795 35.4485 43.9656 35.8012 43.9656H38.3512C40.9117 43.9656 42.9949 41.8824 42.9949 39.3218V16.7068C42.9949 16.7052 42.9952 16.7036 42.9952 16.7016ZM24.8245 3.09913H18.1707C20.2385 1.95911 22.7571 1.95911 24.8245 3.09913ZM4.7264 14.1293V19.2743L1.6367 16.7019L4.7264 14.1293ZM38.2692 19.2739V14.1293L41.3589 16.7016L38.2692 19.2739Z" fill="black"/>
<path d="M30.863 18.6548H12.1329C11.7802 18.6548 11.4941 18.9405 11.4941 19.2932C11.4941 19.6459 11.7802 19.9319 12.1329 19.9319H30.863C31.2156 19.9319 31.5017 19.6459 31.5017 19.2932C31.5017 18.9405 31.2156 18.6548 30.863 18.6548Z" fill="black"/>
<path d="M30.863 22.363H12.1329C11.7802 22.363 11.4941 22.6491 11.4941 23.0018C11.4941 23.3544 11.7802 23.6402 12.1329 23.6402H30.863C31.2156 23.6402 31.5017 23.3544 31.5017 23.0018C31.5017 22.6491 31.2156 22.363 30.863 22.363Z" fill="black"/>
<path d="M30.863 11.2375H12.1329C11.7802 11.2375 11.4941 11.5236 11.4941 11.8763C11.4941 12.2286 11.7802 12.5147 12.1329 12.5147H30.863C31.2156 12.5147 31.5017 12.2286 31.5017 11.8763C31.5017 11.5236 31.2156 11.2375 30.863 11.2375Z" fill="black"/>
<path d="M30.8628 14.9463H26.1804C25.8277 14.9463 25.542 15.232 25.542 15.5847C25.542 15.9374 25.8277 16.2231 26.1804 16.2231H30.8628C31.2155 16.2231 31.5013 15.9374 31.5013 15.5847C31.5013 15.232 31.2155 14.9463 30.8628 14.9463Z" fill="black"/>
<path d="M12.1329 16.2231H24.0521C24.4047 16.2231 24.6905 15.9374 24.6905 15.5847C24.6905 15.232 24.4047 14.9463 24.0521 14.9463H12.1329C11.7802 14.9463 11.4941 15.232 11.4941 15.5847C11.4941 15.9374 11.7802 16.2231 12.1329 16.2231Z" fill="black"/>
</g>
<defs>
<clipPath id="clip0_1043_2739">
<rect width="43" height="43" fill="white" transform="translate(0 0.965576)"/>
</clipPath>
</defs>
</svg>
