<svg width="26" height="29" viewBox="0 0 26 29" fill="none" xmlns="http://www.w3.org/2000/svg">
<path fill-rule="evenodd" clip-rule="evenodd" d="M18.9559 2.29469H22.6541C22.7422 2.29469 22.8267 2.32969 22.889 2.39201C22.9514 2.45433 22.9864 2.53885 22.9864 2.62698V12.6461C23.7204 12.8078 23.802 13.5715 24.0843 13.8535C24.3207 14.09 24.9045 14.1887 25.1759 14.652C25.4465 15.114 25.2488 15.6769 25.3414 16.0136C25.4331 16.3469 25.8972 16.7546 25.8972 17.313C25.8972 17.8714 25.4331 18.279 25.3414 18.6124C25.2488 18.9491 25.4466 19.512 25.176 19.9739C24.8676 20.5004 24.2509 20.5023 24.0015 20.8765L25.2923 24.0466H25.2917C25.3173 24.1103 25.3224 24.1803 25.3064 24.2471C25.2904 24.3138 25.2541 24.374 25.2025 24.4192C25.1509 24.4644 25.0865 24.4925 25.0183 24.4996C24.95 24.5067 24.8812 24.4925 24.8214 24.4588L23.4512 23.6811L23.0201 25.1722C23.0133 25.2041 23.0017 25.2348 22.9859 25.2634V28.6677C22.9859 28.7558 22.9509 28.8404 22.8886 28.9027C22.8263 28.965 22.7418 29 22.6537 29H2.54904C2.46091 29 2.37639 28.965 2.31407 28.9027C2.25176 28.8404 2.21675 28.7558 2.21675 28.6677V26.7053H0.332292C0.244162 26.7053 0.159643 26.6703 0.097326 26.608C0.0350092 26.5457 0 26.4612 0 26.373V0.332292C0 0.244163 0.0350092 0.159643 0.097326 0.0973262C0.159643 0.0350094 0.244162 2.48977e-07 0.332292 2.48977e-07H16.524C16.5683 -5.41164e-05 16.6122 0.00879527 16.653 0.0260233C16.6938 0.0432514 16.7308 0.0685071 16.7617 0.100292L18.9559 2.29469Z" fill="black"/>
<path fill-rule="evenodd" clip-rule="evenodd" d="M22.6727 13.2752L22.4143 13.2792C21.8267 13.3007 21.6628 13.2559 21.1648 12.9429C20.6507 12.6197 20.5777 12.6333 20.0852 12.9429C19.5873 13.2559 19.4233 13.3008 18.8357 13.2793C18.2792 13.2589 18.2449 13.279 17.9943 13.7714C17.7274 14.2961 17.6084 14.4151 17.0838 14.682C16.5948 14.9308 16.571 14.9612 16.5916 15.5234C16.6131 16.1109 16.5682 16.2751 16.2552 16.7729C15.9383 17.2769 15.9384 17.3485 16.2552 17.8525C16.5682 18.3504 16.6131 18.5144 16.5916 19.102C16.571 19.6642 16.5948 19.6946 17.0837 19.9434C17.6083 20.2103 17.7274 20.3294 17.9943 20.854C18.2449 21.3464 18.2792 21.3665 18.8357 21.3461C19.4318 21.3243 19.5942 21.374 20.0852 21.6825C20.5715 21.9881 20.6652 22.0188 21.209 21.6546C21.6418 21.3646 21.9009 21.3273 22.4141 21.3461C22.9707 21.3665 23.005 21.3461 23.2555 20.854C23.5224 20.3294 23.6414 20.2103 24.166 19.9434C24.6585 19.6928 24.6786 19.6585 24.6582 19.102C24.6366 18.5144 24.6815 18.3504 24.9946 17.8525C25.3114 17.3484 25.3115 17.277 24.9946 16.7729C24.6815 16.2749 24.6366 16.1109 24.6582 15.5234C24.6785 14.9669 24.6582 14.9325 24.166 14.6819C23.6413 14.415 23.5224 14.296 23.2555 13.7714C23.0633 13.3938 23.0117 13.2853 22.6724 13.2752H22.6727ZM20.625 14.1287C21.2548 14.1287 21.8703 14.3154 22.3939 14.6653C22.9175 15.0151 23.3256 15.5124 23.5666 16.0942C23.8076 16.676 23.8707 17.3162 23.7478 17.9338C23.625 18.5514 23.3217 19.1188 22.8764 19.564C22.4311 20.0093 21.8638 20.3126 21.2462 20.4354C20.6286 20.5583 19.9884 20.4952 19.4066 20.2542C18.8248 20.0133 18.3275 19.6052 17.9777 19.0816C17.6278 18.558 17.4411 17.9424 17.4411 17.3127C17.4411 16.4682 17.7765 15.6584 18.3736 15.0613C18.9707 14.4641 19.7806 14.1287 20.625 14.1287Z" fill="#FCC16D"/>
<path fill-rule="evenodd" clip-rule="evenodd" d="M22.3221 12.6204V2.95874H19.6201L20.6722 4.01078C20.703 4.04158 20.7275 4.07817 20.7442 4.11847C20.7609 4.15876 20.7694 4.20195 20.7694 4.24556V12.0505C21.2464 12.117 21.6242 12.5139 21.924 12.5963C22.0549 12.6227 22.1889 12.6308 22.3221 12.6204Z" fill="#CCCCCD"/>
<path fill-rule="evenodd" clip-rule="evenodd" d="M2.88086 26.7053V28.3358H22.3218V25.0643L21.2403 22.4087C21.0946 22.4923 20.935 22.5487 20.7691 22.5754V26.3733C20.7691 26.4614 20.7341 26.5459 20.6718 26.6083C20.6094 26.6706 20.5249 26.7056 20.4368 26.7056L2.88086 26.7053Z" fill="#999999"/>
<path fill-rule="evenodd" clip-rule="evenodd" d="M15.0545 28.3358H22.3214V25.0643L21.2399 22.4087C21.0942 22.4923 20.9345 22.5487 20.7687 22.5754V26.3733C20.7687 26.4614 20.7337 26.5459 20.6713 26.6083C20.609 26.6706 20.5245 26.7056 20.4364 26.7056H13.1836C13.7614 27.2994 14.3872 27.8447 15.0545 28.3358Z" fill="#CCCCCD"/>
<path fill-rule="evenodd" clip-rule="evenodd" d="M16.8555 1.13403V3.91386H19.6354L16.8555 1.13403Z" fill="#808080"/>
<path fill-rule="evenodd" clip-rule="evenodd" d="M16.8555 3.01076V3.91356H19.6354L18.1259 2.40405C17.6916 2.58675 17.2681 2.78899 16.8555 3.01076Z" fill="#9C9C9C"/>
<path fill-rule="evenodd" clip-rule="evenodd" d="M20.1049 4.5778H16.5234C16.4353 4.5778 16.3508 4.54279 16.2885 4.48047C16.2262 4.41815 16.1911 4.33363 16.1911 4.2455V0.664307H0.664062V26.0413H20.1049V22.458C20.0722 22.4425 20.04 22.4259 20.0082 22.4087L18.8603 25.2276C18.8336 25.2933 18.7865 25.3487 18.726 25.3857C18.6654 25.4228 18.5946 25.4394 18.524 25.4332C18.4533 25.427 18.3864 25.3983 18.3333 25.3514C18.2801 25.3044 18.2433 25.2416 18.2285 25.1723L17.7978 23.6814L16.4276 24.4591C16.3677 24.4928 16.299 24.507 16.2307 24.4999C16.1624 24.4928 16.0981 24.4647 16.0464 24.4195C15.9948 24.3742 15.9585 24.3141 15.9425 24.2473C15.9266 24.1806 15.9317 24.1105 15.9572 24.0468H15.9567L17.2475 20.8767C17.1249 20.6928 16.9567 20.6246 16.7279 20.5082V20.9626C16.7274 21.1929 16.6358 21.4136 16.4729 21.5765C16.3101 21.7393 16.0894 21.831 15.8591 21.8315H4.90948C4.67918 21.831 4.45845 21.7393 4.2956 21.5765C4.13276 21.4137 4.04108 21.1929 4.04063 20.9626V10.0124C4.04109 9.7821 4.13278 9.56138 4.29562 9.39854C4.45846 9.2357 4.67919 9.14401 4.90948 9.14354H15.8593C16.0896 9.14401 16.3103 9.2357 16.4732 9.39854C16.636 9.56138 16.7277 9.78211 16.7281 10.0124V14.1184C17.1582 13.899 17.1861 13.8952 17.402 13.4709C17.5396 13.2005 17.6776 12.9293 17.9632 12.762C18.4252 12.4914 18.9881 12.6892 19.3248 12.5965C19.5216 12.5422 19.8558 12.2865 20.1049 12.1682V4.5778ZM4.37274 4.25565C4.32813 4.25725 4.28366 4.24984 4.24198 4.23386C4.2003 4.21789 4.16227 4.19369 4.13015 4.16269C4.09803 4.1317 4.07248 4.09455 4.05504 4.05347C4.03759 4.01239 4.02859 3.96821 4.02859 3.92357C4.02859 3.87894 4.03759 3.83476 4.05504 3.79368C4.07248 3.7526 4.09803 3.71545 4.13015 3.68445C4.16227 3.65346 4.2003 3.62926 4.24198 3.61328C4.28366 3.59731 4.32813 3.5899 4.37274 3.59149H7.24924C7.33526 3.59456 7.41673 3.6309 7.4765 3.69284C7.53627 3.75478 7.56968 3.8375 7.56968 3.92357C7.56968 4.00965 7.53627 4.09237 7.4765 4.15431C7.41673 4.21625 7.33526 4.25258 7.24924 4.25565H4.37274ZM4.37274 6.02629C4.32807 6.02799 4.28351 6.02066 4.24174 6.00475C4.19997 5.98883 4.16183 5.96464 4.12963 5.93364C4.09742 5.90264 4.0718 5.86546 4.0543 5.82432C4.0368 5.78318 4.02778 5.73894 4.02778 5.69424C4.02778 5.64953 4.0368 5.60529 4.0543 5.56415C4.0718 5.52302 4.09742 5.48583 4.12963 5.45483C4.16183 5.42383 4.19997 5.39965 4.24174 5.38373C4.28351 5.36781 4.32807 5.36048 4.37274 5.36219H8.98162C9.0263 5.36048 9.07085 5.36781 9.11263 5.38373C9.1544 5.39965 9.19253 5.42383 9.22474 5.45483C9.25695 5.48583 9.28257 5.52302 9.30007 5.56415C9.31757 5.60529 9.32659 5.64953 9.32659 5.69424C9.32659 5.73894 9.31757 5.78318 9.30007 5.82432C9.28257 5.86546 9.25695 5.90264 9.22474 5.93364C9.19253 5.96464 9.1544 5.98883 9.11263 6.00475C9.07085 6.02066 9.0263 6.02799 8.98162 6.02629H4.37274Z" fill="#E6E6E6"/>
<path fill-rule="evenodd" clip-rule="evenodd" d="M20.1056 4.57786H16.5241C16.436 4.57786 16.3515 4.54285 16.2892 4.48053C16.2269 4.41821 16.1918 4.33369 16.1918 4.24556V3.38892C13.885 4.78323 11.9941 6.77042 10.716 9.1436H15.8599C16.0901 9.14407 16.3109 9.23576 16.4737 9.3986C16.6365 9.56144 16.7282 9.78217 16.7286 10.0125V14.1184C17.1587 13.8991 17.1867 13.8953 17.4025 13.4709C17.5401 13.2006 17.6781 12.9294 17.9637 12.7621C18.4257 12.4914 18.9886 12.6892 19.3253 12.5966C19.5221 12.5422 19.8564 12.2865 20.1054 12.1682V4.57786H20.1056ZM12.5748 26.0414H20.1056V22.458C20.0729 22.4425 20.0407 22.426 20.0089 22.4087L18.861 25.2276C18.8343 25.2933 18.7872 25.3488 18.7267 25.3858C18.6661 25.4228 18.5953 25.4395 18.5247 25.4333C18.454 25.4271 18.3871 25.3984 18.3339 25.3514C18.2808 25.3045 18.244 25.2417 18.2292 25.1723L17.7985 23.6814L16.4283 24.4592C16.3684 24.4928 16.2996 24.5071 16.2314 24.5C16.1631 24.4929 16.0987 24.4648 16.0471 24.4195C15.9955 24.3743 15.9592 24.3141 15.9432 24.2474C15.9273 24.1807 15.9324 24.1106 15.9579 24.0469H15.9574L17.2482 20.8768C17.1256 20.6929 16.9574 20.6246 16.7286 20.5082V20.9627C16.7281 21.193 16.6365 21.4137 16.4736 21.5765C16.3108 21.7394 16.0901 21.8311 15.8598 21.8315H10.0098C10.6268 23.3666 11.4935 24.7891 12.5748 26.0414Z" fill="white"/>
<path fill-rule="evenodd" clip-rule="evenodd" d="M12.1464 9.80761V13.6408C12.1463 13.7035 12.1284 13.7649 12.0949 13.8179C12.0614 13.8709 12.0136 13.9133 11.957 13.9403C11.9004 13.9672 11.8373 13.9776 11.775 13.9702C11.7127 13.9629 11.6538 13.938 11.6051 13.8986L10.3711 13.0021L9.15157 13.8882C9.10196 13.9236 9.04359 13.9446 8.98283 13.9491C8.92208 13.9536 8.86125 13.9413 8.80699 13.9136C8.75272 13.8859 8.7071 13.8439 8.67508 13.792C8.64306 13.7402 8.62588 13.6806 8.6254 13.6197H8.62492V9.80737H4.91075C4.85658 9.80775 4.80473 9.82944 4.76643 9.86775C4.72812 9.90605 4.70643 9.95789 4.70605 10.0121V20.9621C4.70643 21.0163 4.72812 21.0681 4.76643 21.1064C4.80473 21.1447 4.85658 21.1664 4.91075 21.1668H15.8606C15.9148 21.1664 15.9666 21.1447 16.0049 21.1064C16.0432 21.0681 16.0649 21.0163 16.0653 20.9621V19.958C15.9086 19.6787 15.9196 19.3796 15.9306 19.0789C15.9471 18.6268 15.9359 18.5882 15.6954 18.2057C15.5255 17.9354 15.3531 17.6612 15.3531 17.313C15.3531 16.7546 15.8173 16.347 15.9089 16.0136C15.9431 15.8895 15.9368 15.7179 15.9305 15.5471C15.9195 15.2464 15.9086 14.9472 16.0653 14.668V10.0123C16.0649 9.95814 16.0432 9.90629 16.0049 9.86799C15.9666 9.82968 15.9148 9.80799 15.8606 9.80761H12.1464ZM6.08519 18.12C6.04051 18.1217 5.99596 18.1144 5.95419 18.0984C5.91241 18.0825 5.87428 18.0583 5.84207 18.0273C5.80987 17.9963 5.78424 17.9592 5.76674 17.918C5.74924 17.8769 5.74022 17.8326 5.74022 17.7879C5.74022 17.7432 5.74924 17.699 5.76674 17.6578C5.78424 17.6167 5.80987 17.5795 5.84207 17.5485C5.87428 17.5175 5.91241 17.4933 5.95419 17.4774C5.99596 17.4615 6.04051 17.4542 6.08519 17.4559H8.48518C8.52985 17.4542 8.57441 17.4615 8.61618 17.4774C8.65795 17.4933 8.69608 17.5175 8.72829 17.5485C8.7605 17.5795 8.78612 17.6167 8.80362 17.6578C8.82112 17.699 8.83014 17.7432 8.83014 17.7879C8.83014 17.8326 8.82112 17.8769 8.80362 17.918C8.78612 17.9592 8.7605 17.9963 8.72829 18.0273C8.69608 18.0583 8.65795 18.0825 8.61618 18.0984C8.57441 18.1144 8.52985 18.1217 8.48518 18.12H6.08519ZM6.08519 19.5881C6.04051 19.5898 5.99596 19.5825 5.95419 19.5666C5.91241 19.5506 5.87428 19.5265 5.84207 19.4955C5.80987 19.4645 5.78424 19.4273 5.76674 19.3861C5.74924 19.345 5.74022 19.3008 5.74022 19.2561C5.74022 19.2114 5.74924 19.1671 5.76674 19.126C5.78424 19.0848 5.80987 19.0477 5.84207 19.0167C5.87428 18.9857 5.91241 18.9615 5.95419 18.9455C5.99596 18.9296 6.04051 18.9223 6.08519 18.924H8.48518C8.57105 18.9273 8.65231 18.9637 8.71191 19.0256C8.77151 19.0875 8.8048 19.1701 8.8048 19.2561C8.8048 19.342 8.77151 19.4246 8.71191 19.4865C8.65231 19.5484 8.57105 19.5848 8.48518 19.5881H6.08519Z" fill="#AB8359"/>
<path fill-rule="evenodd" clip-rule="evenodd" d="M12.1448 9.80762V13.6408C12.1447 13.7035 12.1268 13.7649 12.0933 13.8179C12.0598 13.8709 12.012 13.9133 11.9554 13.9403C11.8988 13.9672 11.8357 13.9776 11.7734 13.9702C11.7112 13.9629 11.6523 13.938 11.6035 13.8986L10.3696 13.0021L9.15 13.8882C9.13818 13.8968 9.12583 13.9046 9.11302 13.9115C8.73307 16.3465 8.95533 18.8375 9.76039 21.1668H15.859C15.9132 21.1664 15.965 21.1447 16.0033 21.1064C16.0417 21.0681 16.0633 21.0163 16.0637 20.9621V19.958C15.9071 19.6787 15.918 19.3796 15.929 19.0789C15.9455 18.6268 15.9343 18.5882 15.6939 18.2057C15.524 17.9354 15.3515 17.6612 15.3515 17.313C15.3515 16.7546 15.8157 16.347 15.9074 16.0136C15.9415 15.8895 15.9352 15.7179 15.9289 15.5471C15.9179 15.2464 15.9071 14.9472 16.0637 14.668V10.0123C16.0633 9.95814 16.0417 9.9063 16.0033 9.86799C15.965 9.82969 15.9132 9.808 15.859 9.80762H12.1448Z" fill="#C49A6C"/>
<path fill-rule="evenodd" clip-rule="evenodd" d="M9.28809 9.80762V12.9686L10.1702 12.3281C10.2269 12.2852 10.2958 12.2617 10.3669 12.2609C10.438 12.2602 10.5074 12.2823 10.565 12.324L11.4813 12.9896V9.80762H9.28809Z" fill="#D49E28"/>
<path fill-rule="evenodd" clip-rule="evenodd" d="M9.29297 12.9649L10.1697 12.3279C10.2264 12.285 10.2953 12.2614 10.3664 12.2607C10.4375 12.2599 10.5069 12.282 10.5645 12.3237L11.481 12.9896V9.80762H10.3794C9.90011 10.816 9.53567 11.8751 9.29297 12.9649Z" fill="#FFC447"/>
<path fill-rule="evenodd" clip-rule="evenodd" d="M21.8184 22.0693L22.6426 24.0936L22.9314 23.0941C22.9453 23.0461 22.9699 23.0019 23.0034 22.9648C23.0368 22.9277 23.0783 22.8986 23.1246 22.8798C23.1709 22.861 23.2208 22.8529 23.2707 22.8561C23.3205 22.8593 23.369 22.8738 23.4125 22.8984L24.3168 23.412L23.5804 21.6033C23.0386 22.2892 22.2877 21.8527 21.8184 22.0693Z" fill="#FCB34E"/>
<path fill-rule="evenodd" clip-rule="evenodd" d="M17.6681 21.6028L16.9316 23.4115L17.8359 22.8979C17.8794 22.8733 17.9279 22.8588 17.9777 22.8556C18.0276 22.8524 18.0775 22.8605 18.1238 22.8793C18.1701 22.8981 18.2115 22.9272 18.245 22.9643C18.2784 23.0014 18.3031 23.0456 18.317 23.0936L18.6057 24.0932L19.43 22.0688C18.9604 21.8527 18.2101 22.2894 17.6681 21.6028Z" fill="#FCB34E"/>
<path fill-rule="evenodd" clip-rule="evenodd" d="M22.4063 15.531C22.0539 15.1786 21.6049 14.9386 21.116 14.8414C20.6272 14.7442 20.1205 14.7941 19.6601 14.9848C19.1996 15.1755 18.8061 15.4985 18.5292 15.9129C18.2523 16.3273 18.1045 16.8145 18.1045 17.3129C18.1045 17.8113 18.2523 18.2985 18.5292 18.7129C18.8061 19.1273 19.1996 19.4503 19.6601 19.641C20.1205 19.8317 20.6272 19.8816 21.116 19.7844C21.6049 19.6872 22.0539 19.4471 22.4063 19.0947C22.8788 18.6221 23.1443 17.9812 23.1443 17.3129C23.1443 16.6446 22.8788 16.0036 22.4063 15.531ZM19.2366 17.7998C19.1709 17.7424 19.1305 17.6613 19.1241 17.5743C19.1178 17.4873 19.1461 17.4012 19.2028 17.3349C19.2596 17.2686 19.3402 17.2274 19.4272 17.2202C19.5141 17.213 19.6004 17.2404 19.6673 17.2965L20.2115 17.7648L21.5439 16.1791C21.6004 16.112 21.6811 16.0701 21.7685 16.0625C21.8558 16.055 21.9425 16.0825 22.0096 16.1389C22.0767 16.1953 22.1186 16.276 22.1262 16.3634C22.1337 16.4507 22.1062 16.5375 22.0498 16.6045L20.5157 18.4303C20.4888 18.4671 20.4545 18.4978 20.4151 18.5207C20.3758 18.5436 20.3321 18.5581 20.2868 18.5633C20.2415 18.5685 20.1957 18.5643 20.1521 18.5509C20.1086 18.5375 20.0683 18.5153 20.0337 18.4856L19.2366 17.7998Z" fill="#FCA330"/>
</svg>
