<svg width="43" height="64" viewBox="0 0 43 64" fill="none" xmlns="http://www.w3.org/2000/svg">
<path d="M6.04424 41.011C7.99756 41.011 9.58017 39.4284 9.58017 37.475V41.3389C9.58017 43.2922 11.1628 44.8749 13.1161 44.8749C15.0694 44.8749 16.652 43.2922 16.652 41.3389V44.8178C16.652 46.7711 18.2347 48.3538 20.188 48.3538C22.1413 48.3538 23.7239 46.7711 23.7239 44.8178L23.7239 58.0633C23.7239 60.0166 25.3065 61.5993 27.2599 61.5993C29.2132 61.5993 30.7958 60.0166 30.7958 58.0633L30.7958 34.5665V32.5989L34.7595 36.5625C36.1425 37.9456 38.381 37.9456 39.764 36.5625C41.147 35.1795 41.147 32.9411 39.764 31.5581L29.5839 20.0377C28.3435 18.6262 27.6448 16.8155 27.6448 14.9334V12.7092L6.4292 12.7092V16.4163C6.4292 17.3715 6.2581 18.3125 5.91592 19.1965L3.02158 26.6961C2.67939 27.5801 2.5083 28.5211 2.5083 29.4764L2.5083 34.595L2.5083 37.4893C2.5083 39.4284 4.09092 41.011 6.04424 41.011Z" fill="#FFCCBC"/>
<path d="M30.8101 32.6131V30.7881L37.5968 37.5748C36.5845 37.6746 35.5294 37.3324 34.7595 36.5482L30.8101 32.6131Z" fill="#FCB39F"/>
<path d="M23.7383 58.0489L23.7383 36.5054C23.7383 36.1489 24.0234 35.8638 24.3799 35.8638C24.7363 35.8638 25.0215 36.1489 25.0215 36.5054L25.0215 60.7864C24.9359 60.7151 24.8504 60.6438 24.7648 60.5583C24.1232 59.9167 23.7383 59.0327 23.7383 58.0489Z" fill="#FCB39F"/>
<path d="M16.6519 44.8034V35.2222C16.6519 34.8657 16.937 34.5806 17.2935 34.5806C17.6499 34.5806 17.9351 34.8657 17.9351 35.2222L17.9351 47.5409C17.8495 47.4696 17.764 47.3983 17.6784 47.3128C17.0511 46.6569 16.6519 45.7729 16.6519 44.8034Z" fill="#FCB39F"/>
<path d="M9.58008 41.3246L9.58008 33.9248C9.58008 33.5684 9.86523 33.2832 10.2217 33.2832C10.5781 33.2832 10.8633 33.5684 10.8633 33.9248L10.8633 44.0479C10.7777 43.9766 10.6922 43.9053 10.6066 43.8197C9.9793 43.1924 9.58008 42.3084 9.58008 41.3246Z" fill="#FCB39F"/>
<path d="M2.5083 37.4749L2.5083 32.6558C2.5083 32.2993 2.79346 32.0142 3.1499 32.0142C3.50635 32.0142 3.7915 32.2993 3.7915 32.6558L3.7915 40.2124C3.70596 40.1411 3.62041 40.0698 3.53486 39.9843C2.89326 39.3284 2.5083 38.4444 2.5083 37.4749Z" fill="#FCB39F"/>
<path d="M27.9302 13.9925L6.05869 13.9925C3.92002 13.9925 2.19482 12.2673 2.19482 10.1286L2.19482 6.26475C2.19482 4.12607 3.92002 2.40088 6.05869 2.40088L27.9302 2.40088C30.0688 2.40088 31.794 4.12607 31.794 6.26475V10.1286C31.794 12.2673 30.0688 13.9925 27.9302 13.9925Z" fill="#28A745"/>
<path d="M5.00361 15.3042V16.4021C5.00361 17.172 4.86103 17.9419 4.59014 18.669L1.6958 26.1687C1.28232 27.2237 1.08272 28.3216 1.08272 29.4622L1.08272 37.4608C1.08272 40.1983 3.30693 42.4226 6.04443 42.4226C6.81436 42.4226 7.5415 42.2515 8.19736 41.9378C8.49678 44.3901 10.5927 46.2864 13.1163 46.2864C13.9147 46.2864 14.6562 46.1011 15.3263 45.7731C15.7825 48.0544 17.7929 49.7653 20.1882 49.7653C20.9438 49.7653 21.6567 49.5942 22.2983 49.2948L22.2983 58.0491C22.2983 60.7866 24.5226 63.0108 27.2601 63.0108C29.9976 63.0108 32.2218 60.7866 32.2218 58.0491L32.2218 36.0493L33.7331 37.5606C34.6741 38.5017 35.9145 39.0149 37.2405 39.0149C38.5665 39.0149 39.8069 38.5017 40.7479 37.5606C42.6727 35.6358 42.687 32.5134 40.7765 30.5743L30.6249 19.0825C29.6839 18.0274 29.1421 16.6729 29.0565 15.2757C31.4091 14.7481 33.177 12.638 33.177 10.1144V6.26475C33.177 3.35615 30.8102 0.975098 27.8874 0.975098L6.05869 0.975098C3.1501 0.975098 0.769043 3.34189 0.769043 6.26475L0.769043 10.1286C0.783301 12.6808 2.59404 14.8194 5.00361 15.3042ZM29.5841 20.0378L39.7642 31.5581C41.1472 32.9411 41.1472 35.1796 39.7642 36.5626C38.3811 37.9456 36.1427 37.9456 34.7597 36.5626L30.8102 32.6132L30.8102 58.0634C30.8102 60.0167 29.2276 61.5993 27.2743 61.5993C25.321 61.5993 23.7384 60.0167 23.7384 58.0634L23.7384 36.5769C23.7384 36.1776 23.4247 35.864 23.0255 35.864C22.6263 35.864 22.3126 36.1776 22.3126 36.5769V47.6409C21.728 48.0829 20.9866 48.3396 20.2024 48.3396C18.2491 48.3396 16.6665 46.7569 16.6665 44.8036V35.2509C16.6665 34.8802 16.3671 34.5808 15.9964 34.5808H15.9108C15.5401 34.5808 15.2407 34.8802 15.2407 35.2509L15.2407 44.1763C14.6562 44.6183 13.9147 44.8749 13.1306 44.8749C11.1772 44.8749 9.59463 43.2923 9.59463 41.339L9.59463 33.9962C9.59463 33.597 9.28096 33.2833 8.88174 33.2833C8.48252 33.2833 8.16885 33.597 8.16885 33.9962L8.16885 40.2981C7.58428 40.7401 6.84287 40.9968 6.05869 40.9968C4.10537 40.9968 2.52275 39.4142 2.52275 37.4608L2.52275 29.448C2.52275 28.4927 2.69385 27.5517 3.03604 26.6677L5.93037 19.1681C6.27256 18.2841 6.44365 17.3431 6.44365 16.3878V15.3897L27.6878 15.3897C27.7876 17.1149 28.4577 18.7546 29.5841 20.0378ZM2.20908 6.26475C2.20908 4.12607 3.93428 2.40088 6.07295 2.40088L27.9444 2.40088C30.0831 2.40088 31.8083 4.12607 31.8083 6.26475V10.1286C31.8083 12.253 30.0831 13.9925 27.9444 13.9925L6.05869 13.9925C3.92002 13.9925 2.19482 12.2673 2.19482 10.1286L2.19482 6.26475H2.20908Z" fill="black"/>
</svg>
